HIERARCHY
ROOT joint_Root
{
	OFFSET 0.0 0.0 0.0
	CHANNELS 6 Xposition Yposition Zposition Zrotation Xrotation Yrotation 
	JOINT Hips
	{
		OFFSET -0.726466 93.3139 -2.00062
		CHANNELS 6 Xposition Yposition Zposition Zrotation Xrotation Yrotation 
		JOINT Spine
		{
			OFFSET 15.7357 0.0 0.0
			CHANNELS 6 Xposition Yposition Zposition Zrotation Xrotation Yrotation 
			JOINT Chest
			{
				OFFSET 8.98455 -0.406207 0.0
				CHANNELS 6 Xposition Yposition Zposition Zrotation Xrotation Yrotation 
				JOINT Neck
				{
					OFFSET 16.3773 0.0 0.0
					CHANNELS 6 Xposition Yposition Zposition Zrotation Xrotation Yrotation 
					JOINT Head
					{
						OFFSET 6.45672 0.0 0.0
						CHANNELS 6 Xposition Yposition Zposition Zrotation Xrotation Yrotation 
						End Site
						{
							OFFSET 0.0 0.0 0.0
						}
					}
				}
				JOINT Shoulder_L
				{
					OFFSET 12.9942 -0.242716 4.98039
					CHANNELS 6 Xposition Yposition Zposition Zrotation Xrotation Yrotation 
					JOINT UpperArm_L
					{
						OFFSET 5.34809 0.0 0.0
						CHANNELS 6 Xposition Yposition Zposition Zrotation Xrotation Yrotation 
						JOINT LowerArm_L
						{
							OFFSET 24.3286 1.87007e-05 0.0
							CHANNELS 6 Xposition Yposition Zposition Zrotation Xrotation Yrotation 
							JOINT Hand_L
							{
								OFFSET 22.2916 0.0 0.0
								CHANNELS 6 Xposition Yposition Zposition Zrotation Xrotation Yrotation 
								End Site
								{
									OFFSET 0.0 0.0 0.0
								}
							}
						}
					}
				}
				JOINT Shoulder_R
				{
					OFFSET 12.9945 -0.242716 -4.98039
					CHANNELS 6 Xposition Yposition Zposition Zrotation Xrotation Yrotation 
					JOINT UpperArm_R
					{
						OFFSET -5.34813 0.0 0.0
						CHANNELS 6 Xposition Yposition Zposition Zrotation Xrotation Yrotation 
						JOINT LowerArm_R
						{
							OFFSET -24.3289 0.000322201 0.0
							CHANNELS 6 Xposition Yposition Zposition Zrotation Xrotation Yrotation 
							JOINT Hand_R
							{
								OFFSET -22.2915 -0.000108084 0.0
								CHANNELS 6 Xposition Yposition Zposition Zrotation Xrotation Yrotation 
								End Site
								{
									OFFSET 0.0 0.0 0.0
								}
							}
						}
					}
				}
			}
		}
		JOINT UpperLeg_L
		{
			OFFSET -2.19248 -6.46944 0.0
			CHANNELS 6 Xposition Yposition Zposition Zrotation Xrotation Yrotation 
			JOINT LowerLeg_L
			{
				OFFSET 39.0811 0.0 -1.23785e-05
				CHANNELS 6 Xposition Yposition Zposition Zrotation Xrotation Yrotation 
				JOINT Foot_L
				{
					OFFSET 40.9854 0.0 -1.26872e-05
					CHANNELS 6 Xposition Yposition Zposition Zrotation Xrotation Yrotation 
					JOINT Toes_L
					{
						OFFSET 11.7543 0.0 0.0
						CHANNELS 6 Xposition Yposition Zposition Zrotation Xrotation Yrotation 
						End Site
						{
							OFFSET 0.0 0.0 0.0
						}
					}
				}
			}
		}
		JOINT UpperLeg_R
		{
			OFFSET -2.19251 6.46944 0.0
			CHANNELS 6 Xposition Yposition Zposition Zrotation Xrotation Yrotation 
			JOINT LowerLeg_R
			{
				OFFSET -39.0811 -0.00228153 -0.0401928
				CHANNELS 6 Xposition Yposition Zposition Zrotation Xrotation Yrotation 
				JOINT Foot_R
				{
					OFFSET -40.9854 0.0 0.0
					CHANNELS 6 Xposition Yposition Zposition Zrotation Xrotation Yrotation 
					JOINT Toes_R
					{
						OFFSET -11.7543 0.0 0.0
						CHANNELS 6 Xposition Yposition Zposition Zrotation Xrotation Yrotation 
						End Site
						{
							OFFSET 0.0 0.0 0.0
						}
					}
				}
			}
		}
	}
}
MOTION
Frames:	5
Frame Time:	0.0333333
0.000000 0.000000 0.000000 0.000000 0.000000 -0.000000 4.677640 91.252000 -515.607000 83.931000 -2.120420 0.827465 15.735700 0.000005 -0.000001 78.272600 80.033700 -77.097200 8.984550 -0.406207 -0.000000 11.813500 -3.975810 2.762190 16.377300 -0.000001 -0.000001 10.588500 0.651753 -1.013080 6.456720 -0.000001 -0.000000 2.238000 4.373500 0.354579 12.994200 -0.242716 4.980390 -88.363600 -4.234650 -68.848700 5.348090 -0.000007 -0.000001 -52.155300 20.192300 -28.596800 24.328600 0.000019 0.000005 2.944110 2.554650 -49.085900 22.291600 -0.000001 0.000005 5.611560 5.570690 -9.721580 12.994500 -0.242716 -4.980390 90.211900 -0.468986 -65.683000 -5.348130 -0.000001 -0.000004 -56.850400 29.450800 -3.346840 -24.328900 0.000322 -0.000009 1.096300 1.589000 -34.637200 -22.291500 -0.000108 -0.000004 2.004040 5.530840 -7.832940 -2.192480 -6.469440 -0.000000 -173.107000 -7.829370 -2.226430 39.081100 -0.000007 -0.000012 -0.221818 0.440293 26.739200 40.985400 -0.000006 -0.000013 -0.516321 -2.074380 -74.020000 11.754300 -0.000000 0.000003 0.001077 0.024311 -15.582100 -2.192510 6.469440 -0.000001 -177.290000 19.312300 153.559000 -39.081100 -0.002282 -0.040193 0.117861 -0.093730 50.724700 -40.985400 0.000008 0.000006 -3.680200 -5.519630 -59.455800 -11.754300 -0.000006 -0.000006 -0.017610 -0.153670 -22.847300
0.000000 0.000000 0.000000 0.000000 0.000000 -0.000000 4.502730 90.919600 -513.487000 83.692900 -0.644581 1.292370 15.735700 0.000005 -0.000001 75.315100 79.504400 -73.911700 8.984550 -0.406207 -0.000000 12.643400 -5.211080 3.385840 16.377300 -0.000001 -0.000001 10.510400 0.369569 -1.020580 6.456720 -0.000001 -0.000000 1.870040 4.963430 0.126813 12.994200 -0.242716 4.980390 -88.256400 -4.717620 -69.688400 5.348090 -0.000007 -0.000001 -48.339400 17.340300 -32.823000 24.328600 0.000019 0.000005 2.817750 2.275900 -51.106300 22.291600 -0.000001 0.000005 5.859410 5.577890 -10.101200 12.994500 -0.242716 -4.980390 90.213800 -0.455921 -64.871200 -5.348130 -0.000001 -0.000004 -55.854400 28.612600 -0.818214 -24.328900 0.000322 -0.000009 0.954621 1.360110 -35.100300 -22.291500 -0.000108 -0.000004 1.525940 5.538700 -8.184450 -2.192480 -6.469440 -0.000000 -172.347000 -7.116700 -0.309705 39.081100 -0.000007 -0.000012 -0.256995 0.515698 26.489500 40.985400 -0.000006 -0.000013 -0.645114 -1.187760 -75.067600 11.754300 -0.000000 0.000003 -0.000040 -0.000468 -16.595800 -2.192510 6.469440 -0.000001 -176.105000 18.960200 151.472000 -39.081100 -0.002282 -0.040193 0.077077 -0.074940 44.565600 -40.985400 0.000008 0.000006 -4.278810 -3.628360 -59.574500 -11.754300 -0.000006 -0.000006 -0.016590 -0.147608 -22.598100
0.000000 0.000000 0.000000 0.000000 0.000000 -0.000000 4.298640 90.411300 -511.234000 83.686300 0.667577 1.628750 15.735700 0.000005 -0.000001 73.251900 78.953700 -71.709600 8.984550 -0.406207 -0.000000 13.533800 -6.220510 3.826330 16.377300 -0.000001 -0.000001 10.288600 0.126628 -0.871722 6.456720 -0.000001 -0.000000 1.527170 5.257250 0.005933 12.994200 -0.242716 4.980390 -88.124100 -5.273870 -70.386900 5.348090 -0.000007 -0.000001 -44.581900 14.721100 -36.265800 24.328600 0.000019 0.000005 2.141140 1.608430 -53.107700 22.291600 -0.000001 0.000005 6.111530 5.577630 -10.084900 12.994500 -0.242716 -4.980390 90.238100 -0.490357 -64.104000 -5.348130 -0.000001 -0.000004 -55.050400 27.517900 1.311310 -24.328900 0.000322 -0.000009 0.781609 1.090260 -35.680300 -22.291500 -0.000108 -0.000004 0.944889 5.552350 -8.817770 -2.192480 -6.469440 -0.000000 -171.855000 -6.382830 1.344880 39.081100 -0.000007 -0.000012 -0.278750 0.553180 26.744300 40.985400 -0.000006 -0.000013 -0.701191 -0.552566 -76.757400 11.754300 -0.000000 0.000003 -0.094653 -0.119339 -16.519200 -2.192510 6.469440 -0.000001 -175.405000 18.707300 150.151000 -39.081100 -0.002282 -0.040193 0.041444 -0.050546 37.049300 -40.985400 0.000008 0.000006 -5.106360 -0.506162 -59.086800 -11.754300 -0.000006 -0.000006 -0.017597 -0.153592 -22.844100
0.000000 0.000000 0.000000 0.000000 0.000000 -0.000000 4.059580 89.706100 -508.787000 83.991600 1.822700 1.777120 15.735700 0.000005 -0.000001 71.454500 78.515000 -69.841200 8.984550 -0.406207 -0.000000 14.194400 -7.130090 4.120170 16.377300 -0.000001 -0.000001 10.218300 -0.226865 -0.789007 6.456720 -0.000001 -0.000000 1.169210 5.483980 -0.224002 12.994200 -0.242716 4.980390 -88.026100 -5.691710 -70.837000 5.348090 -0.000007 -0.000001 -41.218200 12.476800 -38.516700 24.328600 0.000019 0.000005 1.370830 0.954024 -55.175800 22.291600 -0.000001 0.000005 5.903190 5.578100 -10.110500 12.994500 -0.242716 -4.980390 90.390400 -0.782573 -63.488000 -5.348130 -0.000001 -0.000004 -54.756500 26.279900 3.305730 -24.328900 0.000322 -0.000009 0.339703 0.460070 -36.543900 -22.291500 -0.000108 -0.000004 1.062050 5.553420 -8.868810 -2.192480 -6.469440 -0.000000 -171.761000 -5.622350 2.813810 39.081100 -0.000007 -0.000012 -0.274471 0.530008 27.378500 40.985400 -0.000006 -0.000013 -0.261073 -0.401618 -78.828800 11.754300 -0.000000 0.000003 -0.561850 -0.702538 -16.142000 -2.192510 6.469440 -0.000001 -175.046000 18.558200 149.322000 -39.081100 -0.002282 -0.040193 0.013506 -0.018494 28.881200 -40.985400 0.000008 0.000006 -5.998590 1.603890 -58.724500 -11.754300 -0.000006 -0.000006 -0.017234 -0.151454 -22.756200
0.000000 0.000000 0.000000 0.000000 0.000000 -0.000000 3.753900 88.824800 -506.058000 84.553200 2.903470 1.622370 15.735700 0.000005 -0.000001 70.168800 78.278200 -68.507400 8.984550 -0.406207 -0.000000 14.499500 -7.759360 4.317050 16.377300 -0.000001 -0.000001 10.217300 -0.674759 -0.702042 6.456720 -0.000001 -0.000000 0.924069 5.480860 -0.476866 12.994200 -0.242716 4.980390 -87.968300 -5.993730 -71.235100 5.348090 -0.000007 -0.000001 -38.403600 11.020500 -39.986600 24.328600 0.000019 0.000005 0.873864 0.566821 -57.035700 22.291600 -0.000001 0.000005 5.876660 5.579980 -10.210700 12.994500 -0.242716 -4.980390 90.550500 -1.069280 -62.757600 -5.348130 -0.000001 -0.000004 -54.497200 25.176300 5.058370 -24.328900 0.000322 -0.000009 -0.168084 -0.218843 -37.336800 -22.291500 -0.000108 -0.000004 1.418280 5.556250 -9.004160 -2.192480 -6.469440 -0.000000 -171.868000 -5.043080 4.295400 39.081100 -0.000007 -0.000012 -0.231005 0.436331 27.898300 40.985400 -0.000006 -0.000013 0.141279 -0.138514 -81.073600 11.754300 -0.000000 0.000003 -0.899975 -1.132620 -15.873400 -2.192510 6.469440 -0.000001 -174.630000 18.992100 148.370000 -39.081100 -0.002282 -0.040193 -0.000304 0.009186 21.523800 -40.985400 0.000008 0.000006 -6.570650 1.968320 -58.531800 -11.754300 -0.000006 -0.000006 -0.016833 -0.149065 -22.658000
